<svg width="24" height="24" viewBox="0 0 24 24" fill="none" xmlns="http://www.w3.org/2000/svg">
<path d="M21 5.125C21.4832 5.125 21.875 5.51675 21.875 6C21.875 6.48325 21.4832 6.875 21 6.875H19.8184L19.1719 16.5781C19.1203 17.3532 19.0791 17.9854 19.0039 18.4971C18.9367 18.9541 18.8357 19.3689 18.6465 19.7549L18.5605 19.918C18.1731 20.5985 17.5884 21.1456 16.8838 21.4873H16.8828C16.4353 21.7038 15.9617 21.7932 15.4355 21.835C14.9201 21.8758 14.2862 21.875 13.5088 21.875H10.4912C9.71413 21.875 9.08004 21.8758 8.56445 21.835C8.03833 21.7932 7.56473 21.7038 7.11719 21.4873H7.11621C6.41161 21.1456 5.8269 20.5985 5.43945 19.918V19.917C5.19425 19.4856 5.07397 19.0192 4.99707 18.4971C4.95941 18.2413 4.92963 17.9555 4.90332 17.6367L4.82812 16.5771L4.18164 6.875H3C2.51675 6.875 2.125 6.48325 2.125 6C2.125 5.51675 2.51675 5.125 3 5.125H21ZM6.57422 16.4609L6.64746 17.4932C6.6714 17.7845 6.69711 18.0289 6.72852 18.2422C6.78985 18.6586 6.86627 18.8862 6.96094 19.0527C7.17309 19.425 7.49257 19.7248 7.87793 19.9121H7.87891C8.05129 19.9955 8.28334 20.0566 8.70312 20.0898C9.13351 20.124 9.68641 20.125 10.4912 20.125H13.5088C14.3142 20.125 14.8676 20.124 15.2979 20.0898C15.6123 20.0649 15.8211 20.0246 15.9785 19.9707L16.1211 19.9121C16.5071 19.7247 16.8277 19.4246 17.04 19.0518L17.1074 18.9141C17.1718 18.7608 17.2265 18.5554 17.2725 18.2432C17.3352 17.8164 17.3724 17.2647 17.4258 16.4619L18.0645 6.875H5.93555L6.57422 16.4609ZM9.125 15.5V10.5C9.125 10.0168 9.51675 9.625 10 9.625C10.4832 9.625 10.875 10.0168 10.875 10.5V15.5C10.875 15.9832 10.4832 16.375 10 16.375C9.51675 16.375 9.125 15.9832 9.125 15.5ZM13.125 15.5V10.5C13.125 10.0168 13.5168 9.625 14 9.625C14.4832 9.625 14.875 10.0168 14.875 10.5V15.5C14.875 15.9832 14.4832 16.375 14 16.375C13.5168 16.375 13.125 15.9832 13.125 15.5ZM15 2.125C15.4832 2.125 15.875 2.51675 15.875 3C15.875 3.48325 15.4832 3.875 15 3.875H9C8.51675 3.875 8.125 3.48325 8.125 3C8.125 2.51675 8.51675 2.125 9 2.125H15Z" fill="black"/>
</svg>
